<svg height="20" viewBox="0 0 83 20" width="83" xmlns="http://www.w3.org/2000/svg"><g fill="#f6472f" fill-rule="nonzero" transform="translate(-1 -8)"><path d="m1.4765625 19.078125c0-.859375.10351562-1.6855469.31054688-2.4785156.20703124-.7929688.50195312-1.5332032.88476562-2.2207032s.84570312-1.3125 1.38867188-1.875c.54296874-.5625 1.15039062-1.0449218 1.82226562-1.4472656.671875-.4023437 1.40039062-.7128906 2.18554688-.9316406.78515624-.21875 1.61132812-.328125 2.47851562-.328125.6875 0 1.2910156.04492188 1.8105469.13476562.5195312.08984378.9726562.20312498 1.359375.33984378.3867187.1367187.7109375.2871094.9726562.4511718.2617188.1640626.4785157.3203126.6503907.46875-.0078126 0-.0117188.0273438-.0117188.0820313 0 .1171875.0097656.3320313.0292969.6445313.0195312.3125.0429687.6601562.0703125 1.0429687.0273437.3828125.0507812.7714844.0703125 1.1660156.0195312.3945313.0292969.7363281.0292969 1.0253907 0 .046875-.015625.0996093-.046875.1582031-.03125.0585937-.109375.0878906-.234375.0878906-.0703126 0-.15625-.0117187-.2578126-.0351563-.1640624-.046875-.3710937-.1542968-.6210937-.3222656-.25-.1679687-.5410156-.34375-.8730469-.5273437-.3320312-.1835938-.703125-.3476563-1.1132812-.4921875-.4101563-.1445313-.8574219-.2167969-1.3417969-.2167969-.640625 0-1.22265625.1269531-1.74609375.3808594-.5234375.2539062-.96875.6035156-1.3359375 1.0488281s-.65234375.9746094-.85546875 1.5878906c-.203125.6132813-.3046875 1.2832032-.3046875 2.0097656 0 .640625.0703125 1.2519532.2109375 1.8339844.140625.5820313.35351562 1.0917969.63867188 1.5292969.28515624.4375.640625.7871094 1.06640624 1.0488281.42578126.2617188.91992188.3925782 1.48242188.3925782.4453125 0 .8398437-.015625 1.1835937-.046875s.6640626-.0820313.9609376-.1523438.5878906-.1640625.8730468-.28125c.2851563-.1171875.5917969-.265625.9199219-.4453125.015625-.0078125.0546875-.0117187.1171875-.0117187.0546875 0 .0917969.0214843.1113281.0644531.0195313.0429687.0292969.1308593.0292969.2636719v1.40625c0 .2578124-.0019531.5097656-.0058594.7558593-.0039062.2460938-.0078125.4667969-.0117187.6621094-.0039063.1953125-.0078125.3535156-.0117188.4746094-.0039062.1210937-.0097656.1816406-.0175781.1816406-.359375.2265625-.7441406.4121094-1.1542969.5566406-.4101562.1445313-.8320312.2578125-1.265625.3398438-.4335937.0820312-.8691406.1367187-1.3066406.1640625-.4375.0273437-.859375.0410156-1.265625.0410156-1.1015625 0-2.1328125-.2089844-3.09375-.6269531-.9609375-.4179688-1.79492188-1.0019531-2.50195312-1.7519531-.70703126-.75-1.26367188-1.6484376-1.66992188-2.6953126s-.609375-2.1992187-.609375-3.4570312z"/><path d="m22.5351562 27.609375c-1.1015624 0-2.0683593-.1796875-2.9003906-.5390625-.8320312-.359375-1.5292968-.8378906-2.0917968-1.4355469-.5625-.5976562-.984375-1.2851562-1.265625-2.0625-.28125-.7773437-.421875-1.5839844-.421875-2.4199218 0-.8359376.1367187-1.6308594.4101562-2.3847657.2734375-.7539062.65625-1.4296875 1.1484375-2.0273437.4921875-.5976563 1.0820313-1.0976563 1.7695313-1.5.6875-.4023438 1.4453124-.6738282 2.2734374-.8144532.125-.0078124.1875-.0351562.1875-.0820312 0-.0859375-.0097656-.1660156-.0292968-.2402344-.0195313-.0742187-.0292969-.1386718-.0292969-.1933594 0-.0859374.015625-.1445312.046875-.1757812s.0664063-.046875.1054687-.046875c1.4921876 0 2.7617188.1699219 3.8085938.5097656 1.046875.3398438 1.8984375.8027344 2.5546875 1.3886719s1.1328125 1.2773437 1.4296875 2.0742187.4453125 1.6523438.4453125 2.5664063c0 1.1640625-.1953125 2.203125-.5859375 3.1171875s-.9238281 1.6875-1.5996094 2.3203125c-.6757812.6328125-1.4648437 1.1152344-2.3671875 1.4472656-.9023437.3320313-1.8652343.4980469-2.8886719.4980469zm-2.1679687-6.5859375c0 .421875.0449219.8398437.1347656 1.2539063.0898438.4140624.2382813.7890624.4453125 1.125.2070313.3359374.4785156.6074218.8144532.8144531.3359374.2070312.7539062.3105469 1.2539062.3105469.359375-.015625.6738281-.0957032.9433594-.2402344.2695312-.1445313.5019531-.3320313.6972656-.5625.1953125-.2304688.3574219-.4902344.4863281-.7792969.1289063-.2890625.2304688-.5878906.3046875-.8964844.0742188-.3085937.1269532-.6113281.1582032-.9082031s.046875-.5664062.046875-.8085938c0-.40625-.0605469-.8046874-.1816407-1.1953124-.1210937-.390625-.2988281-.734375-.5332031-1.03125s-.5253906-.5371094-.8730469-.7207032c-.3476562-.1835937-.7480469-.2753906-1.2011719-.2753906-.46875 0-.8632812.1386719-1.1835937.4160156-.3203125.2773438-.5761719.6191406-.7675781 1.0253906-.1914063.40625-.3300782.8339844-.4160156 1.2832032-.0859376.4492187-.1289063.8457031-.1289063 1.1894531z"/><path d="m48.5273438 27.421875c-.0859376.0234375-.1992188.0605469-.3398438.1113281-.140625.0507813-.2773438.0761719-.4101562.0761719-.109375 0-.2050782-.0273438-.2871094-.0820312-.0820313-.0546876-.1230469-.1484376-.1230469-.28125v-.0703126c.0546875-.5703124.1015625-1.0332031.140625-1.3886718.0390625-.3554688.0703125-.6425782.09375-.8613282s.0429687-.3847656.0585937-.4980468c.015625-.1132813.03125-.21875.046875-.3164063.015625-.0976562.0292969-.2050781.0410157-.3222656.0117187-.1171875.0292969-.2832031.0527343-.4980469.0234376-.2148437.0527344-.5.0878907-.8554687.0351562-.3554688.0800781-.8222657.1347656-1.4003907.03125-.3125.0644531-.6230468.0996094-.9316406.0351562-.3085937.0527343-.5917968.0527343-.8496094 0-.328125-.0175781-.6269531-.0527343-.8964843-.0351563-.2695313-.0976563-.5-.1875-.6914063-.0898438-.1914062-.2128907-.3417968-.3691407-.4511718s-.3554687-.1640626-.5976562-.1640626c-.1484375 0-.3417969.03125-.5800781.09375-.2382813.0625-.4785157.1738282-.7207031.3339844-.2421876.1601563-.4609376.3710938-.65625.6328125-.1953126.2617188-.3203126.5917969-.375.9902344v.046875c-.09375.890625-.1777344 1.6621094-.2519532 2.3144531-.0742187.6523438-.1386718 1.2128906-.1933594 1.6816406-.0546874.46875-.0996093.859375-.1347656 1.171875-.0351562.3125-.0644531.5761719-.0878906.7910157-.0234375.2148437-.0410156.3925781-.0527344.5332031-.0117187.140625-.0175781.2734375-.0175781.3984375 0 .0625.0019531.1152344.0058594.1582031.0039062.0429688.0058593.0800782.0058593.1113282 0 .0625-.0292968.1152343-.0878906.1582031-.0585937.0429687-.1894531.0957031-.3925781.1582031l-2.7539063.796875c-.0859374.0234375-.1992187.0605469-.3398437.1113281-.140625.0507813-.2773437.0761719-.4101563.0761719-.109375 0-.2050781-.0273438-.2871093-.0820312-.0820313-.0546876-.1230469-.1484376-.1230469-.28125v-.0703126c.0546875-.5703124.0996094-1.0332031.1347656-1.3886718.0351563-.3554688.0664063-.6425782.09375-.8613282.0273438-.21875.0488282-.3847656.0644532-.4980468.015625-.1132813.0292968-.21875.0410156-.3164063.0117187-.0976562.0253906-.2050781.0410156-.3222656s.0332031-.2832031.0527344-.4980469c.0195312-.2148437.046875-.5.0820312-.8554687.0351563-.3554688.0800782-.8222657.1347656-1.4003907.03125-.3125.0644532-.6230468.0996094-.9316406.0351563-.3085937.0527344-.5917968.0527344-.8496094 0-.328125-.015625-.6269531-.046875-.8964843-.03125-.2695313-.0878906-.5-.1699219-.6914063-.0820312-.1914062-.1933593-.3417968-.3339843-.4511718s-.3203126-.1640626-.5390626-.1640626c-.15625 0-.3691406.0390626-.6386718.1171876-.2695313.078125-.5390625.2070312-.8085938.3867187-.2695312.1796875-.5078125.4160156-.7148437.7089844-.2070313.2929687-.3261719.6542969-.3574219 1.0839843-.0625.578125-.1132812 1.0527344-.1523438 1.4238282-.0390624.3710937-.0703124.6757812-.09375.9140625-.0234374.2382812-.0410156.4296875-.0527343.5742187-.0117188.1445313-.0214844.2792969-.0292969.4042969-.0078125.03125-.0195312.1191406-.0351562.2636719-.015625.1445312-.0332032.3164062-.0527344.515625-.0195313.1992187-.0390625.4140625-.0585938.6445312-.0195312.2304688-.0371094.4453125-.0527344.6445313-.015625.1992187-.0292968.3710937-.0410156.515625-.0117187.1445312-.0175781.2324219-.0175781.2636719v.2109374c0 .078125-.0039063.1445313-.0117187.1992188-.0078126.0546875-.03125.1054688-.0703126.1523438-.0390624.046875-.0957031.0898437-.1699218.1289062-.0742188.0390625-.1777344.0820312-.3105469.1289062l-3.0703125 1.0898438c-.0859375.03125-.1992188.0703125-.3398438.1171875s-.2773437.0703125-.4101562.0703125c-.109375 0-.2050781-.0273438-.2871094-.0820312-.0820312-.0546876-.1230468-.1484376-.1230468-.28125l1.0546874-11.953125c.0234376-.2578126.0527344-.4355469.0878907-.5332032.0351562-.0976562.1230469-.1621094.2636719-.1933594.7109374-.140625 1.4375-.2832031 2.1796874-.4277343.7421876-.1445313 1.46875-.3300781 2.1796876-.5566407.0625 0 .0996093.0097657.1113281.0292969.0117187.0195313.0175781.0488281.0175781.0878907l-.1523438 1.7109374c.2890626-.1484374.6132813-.3105468.9726563-.4863281.359375-.1757812.7363281-.3378906 1.1308594-.4863281.3945312-.1484375.796875-.2714844 1.2070312-.3691406.4101563-.0976563.8105469-.1464844 1.2011719-.1464844.5390625 0 1.0371094.1230469 1.4941406.3691406.4570313.2460938.8339844.6542969 1.1308594 1.2246094.3515625-.2265625.7246094-.4375 1.1191406-.6328125.3945313-.1953125.796875-.3632813 1.2070313-.5039063.4101562-.140625.8222656-.25 1.2363281-.328125s.8164062-.1171874 1.2070312-.1171874c.4921876 0 .9570313.0703124 1.3945313.2109374s.8183594.3710938 1.1425781.6914063c.3242188.3203125.5800782.7363281.7675782 1.2480469.1875.5117187.28125 1.1347656.28125 1.8691406 0 .1875-.0039063.3808594-.0117188.5800781-.0078125.1992188-.0234375.4042969-.046875.6152344l-.5390625 5.015625c-.0390625.328125-.0625.6308594-.0703125.9082031-.0078125.2773438-.0117188.5996094-.0117188.9667969 0 .0625.0019532.1152344.0058594.1582031.0039063.0429688.0058594.0800782.0058594.1113282 0 .0703124-.0292969.125-.0878906.1640624-.0585938.0390626-.1894532.0898438-.3925782.1523438z"/><path d="m59.2734375 23.1796875c.078125.15625.1894531.3144531.3339844.4746094.1445312.1601562.3125.3066406.5039062.4394531.1914063.1328125.4003907.2402344.6269531.3222656.2265626.0820313.4609376.1230469.703125.1230469.3359376 0 .6523438-.1308594.9492188-.3925781.296875-.2617188.5566406-.6132813.7792969-1.0546875.2226562-.4414063.3964843-.9453125.5214843-1.5117188.125-.5664062.1875-1.1542969.1875-1.7636719 0-.375-.0332031-.7304687-.0996093-1.0664062-.0664063-.3359375-.1699219-.6289062-.3105469-.8789062s-.3222656-.4492188-.5449219-.5976563c-.2226562-.1484375-.4902343-.2226563-.8027343-.2226563-.5078126 0-.9726563.1484376-1.3945313.4453126s-.7773437.6757812-1.0664063 1.1367187zm-4.359375 4.3945313c-.109375.0234374-.1953125.0351562-.2578125.0351562-.25 0-.375-.1484375-.375-.4453125 0-.0390625.0019531-.078125.0058594-.1171875.0039062-.0390625.0097656-.0820312.0175781-.1289062l1.359375-16.5820313c0-.0234375.0019531-.046875.0058594-.0703125.0039062-.0234375.0058593-.0429688.0058593-.0585938 0-.03125-.0019531-.0585937-.0058593-.0820312-.0039063-.0234375-.0058594-.0429688-.0058594-.0585938 0-.07031245.0253906-.12695308.0761719-.16992182.0507812-.04296876.1816406-.09179688.3925781-.14648438l3.2929687-.78515625c.0859376-.015625.1992188-.05078125.3398438-.10546875s.2773438-.08203125.4101562-.08203125c.1015626 0 .1972657.0234375.2871094.0703125.0898438.046875.1347656.13671875.1347656.26953125 0 .015625-.0019531.03125-.0058593.046875-.0039063.015625-.0058594.03125-.0058594.046875-.0078125.0390625-.0273437.2109375-.0585937.515625s-.0664063.6738281-.1054688 1.1074219c-.0390625.4335937-.0820312.8984375-.1289062 1.3945312-.046875.4960938-.0898438.9609375-.1289063 1.3945313-.0390625.4335937-.0742187.8027343-.1054687 1.1074219-.03125.3046874-.0507813.4765624-.0585938.515625.5703125-.375 1.1601562-.6894532 1.7695312-.9433594.609375-.2539063 1.21875-.3808594 1.828125-.3808594.8046876 0 1.5.1660156 2.0859376.4980469.5859374.3320312 1.0703124.7734375 1.453125 1.3242187.3828124.5507813.6660156 1.1855469.8496093 1.9042969.1835938.71875.2753907 1.4609375.2753907 2.2265625 0 .6171875-.0566407 1.2363281-.1699219 1.8574219-.1132813.6210937-.2773438 1.2167969-.4921875 1.7871093-.2148438.5703126-.484375 1.1054688-.8085938 1.6054688-.3242187.5-.6953125.9335938-1.1132812 1.3007812-.4179688.3671876-.8847656.65625-1.4003906.8671876-.515625.2109374-1.0742188.3164062-1.6757813.3164062-.7265625 0-1.390625-.1601562-1.9921875-.4804688-.6015625-.3203124-1.1601562-.734375-1.6757812-1.2421874-.015625.1875-.0273438.3359374-.0351563.4453124s-.0332031.1933594-.0761719.2519532c-.0429687.0585937-.1074218.1054687-.1933594.140625-.0859374.0351562-.2148437.0722656-.3867187.1113281-.0859375.0234375-.2363281.0605469-.4511719.1113281-.2148437.0507813-.4726562.109375-.7734375.1757813-.3007812.0664062-.6328125.1386719-.9960937.2167969-.3632813.078125-.7324219.15625-1.1074219.234375z"/><path d="m76.2304688 27.609375c-1.1015626 0-2.0683594-.1796875-2.9003907-.5390625-.8320312-.359375-1.5292969-.8378906-2.0917969-1.4355469-.5625-.5976562-.984375-1.2851562-1.265625-2.0625-.28125-.7773437-.421875-1.5839844-.421875-2.4199218 0-.8359376.1367188-1.6308594.4101563-2.3847657.2734375-.7539062.65625-1.4296875 1.1484375-2.0273437.4921875-.5976563 1.0820312-1.0976563 1.7695312-1.5.6875-.4023438 1.4453126-.6738282 2.2734376-.8144532.125-.0078124.1875-.0351562.1875-.0820312 0-.0859375-.0097657-.1660156-.0292969-.2402344-.0195313-.0742187-.0292969-.1386718-.0292969-.1933594 0-.0859374.015625-.1445312.046875-.1757812s.0664062-.046875.1054688-.046875c1.4921874 0 2.7617187.1699219 3.8085937.5097656 1.046875.3398438 1.8984375.8027344 2.5546875 1.3886719s1.1328125 1.2773437 1.4296875 2.0742187.4453125 1.6523438.4453125 2.5664063c0 1.1640625-.1953125 2.203125-.5859375 3.1171875s-.9238281 1.6875-1.5996094 2.3203125c-.6757812.6328125-1.4648437 1.1152344-2.3671875 1.4472656-.9023437.3320313-1.8652344.4980469-2.8886718.4980469zm-2.1679688-6.5859375c0 .421875.0449219.8398437.1347656 1.2539063.0898438.4140624.2382813.7890624.4453125 1.125.2070313.3359374.4785157.6074218.8144531.8144531.3359376.2070312.7539063.3105469 1.2539063.3105469.359375-.015625.6738281-.0957032.9433594-.2402344.2695312-.1445313.5019531-.3320313.6972656-.5625.1953125-.2304688.3574219-.4902344.4863281-.7792969.1289063-.2890625.2304688-.5878906.3046875-.8964844.0742188-.3085937.1269531-.6113281.1582031-.9082031s.046875-.5664062.046875-.8085938c0-.40625-.0605468-.8046874-.1816406-1.1953124-.1210937-.390625-.2988281-.734375-.5332031-1.03125s-.5253906-.5371094-.8730469-.7207032c-.3476562-.1835937-.7480468-.2753906-1.2011718-.2753906-.46875 0-.8632813.1386719-1.1835938.4160156-.3203125.2773438-.5761719.6191406-.7675781 1.0253906-.1914063.40625-.3300781.8339844-.4160157 1.2832032-.0859374.4492187-.1289062.8457031-.1289062 1.1894531z"/></g></svg>